<svg id="96a0c3d6-9a0b-4e0d-a9d8-550bb7c4ab2b" data-name="Layer 1" xmlns="http://www.w3.org/2000/svg" viewBox="0 0 50 50">
  <title>facebbok</title>
  <path d="M29.72,49.67V27.27h2.59c1.42,0,2.84,0,4.26,0,.23,0,.61-.27.64-.46.39-2.73.73-5.46,1.1-8.29H29.82c0-2.42-.13-4.75,0-7.05C30,9.8,31,9,32.66,8.85c1.33-.13,2.67-.12,4-.15.61,0,1.22,0,1.88,0V.88C38.13.82,37.72.74,37.3.73,34.15.57,31,.15,27.88,1.1a9.79,9.79,0,0,0-7.1,8.81c-.17,2.51-.12,5-.17,7.55,0,.32,0,.63,0,1H13.12v8.75h7.42V49.67Z" />
</svg>
