<svg id="ebdf694a-d163-46d1-8e8c-5368f848d4be" data-name="Layer 1" xmlns="http://www.w3.org/2000/svg" viewBox="0 0 48.87 13.23"><title>graham-logo-white</title><path d="M3.1,30V27H2.71v.56h0a1,1,0,0,0-.16-.25,1.24,1.24,0,0,0-.23-.21A1.07,1.07,0,0,0,2,27a1.13,1.13,0,0,0-.34,0,1.44,1.44,0,0,0-.62.13,1.31,1.31,0,0,0-.46.35,1.55,1.55,0,0,0-.28.52,2,2,0,0,0-.1.63,2.5,2.5,0,0,0,.08.65,1.44,1.44,0,0,0,.26.53,1.23,1.23,0,0,0,.45.35,1.56,1.56,0,0,0,.66.13A1.08,1.08,0,0,0,2.29,30a1.15,1.15,0,0,0,.4-.48h0V30a1.44,1.44,0,0,1-.24.9.94.94,0,0,1-.79.31,1.48,1.48,0,0,1-.32,0A1,1,0,0,1,1.07,31a.73.73,0,0,1-.22-.2.69.69,0,0,1-.12-.3H.33A.9.9,0,0,0,.47,31a1,1,0,0,0,.31.3,1.35,1.35,0,0,0,.42.18,2,2,0,0,0,.48.06,1.83,1.83,0,0,0,.67-.11,1.07,1.07,0,0,0,.44-.31A1.25,1.25,0,0,0,3,30.62,2.45,2.45,0,0,0,3.1,30Zm-1.43-.11a1,1,0,0,1-.48-.11,1,1,0,0,1-.33-.29,1.22,1.22,0,0,1-.19-.41,1.82,1.82,0,0,1-.06-.47,2,2,0,0,1,.06-.49,1.27,1.27,0,0,1,.19-.43,1,1,0,0,1,.33-.3.94.94,0,0,1,.48-.12.91.91,0,0,1,.48.12,1,1,0,0,1,.32.31,1.37,1.37,0,0,1,.18.43,2.06,2.06,0,0,1,.06.47,1.73,1.73,0,0,1-.07.47,1.26,1.26,0,0,1-.2.41,1,1,0,0,1-.33.29.9.9,0,0,1-.45.11Z" transform="translate(-0.21 -18.29)" style="fill:#fff"/><path d="M3.47,27v3.22h.39V28.52A1.24,1.24,0,0,1,4,28.05a1.08,1.08,0,0,1,.63-.61,1.19,1.19,0,0,1,.49-.07V27a1.22,1.22,0,0,0-.75.19,1.24,1.24,0,0,0-.47.61h0V27H3.47Z" transform="translate(-0.21 -18.29)" style="fill:#fff"/><path d="M5,28h.39a.7.7,0,0,1,.25-.57,1,1,0,0,1,.61-.18,1.8,1.8,0,0,1,.33,0,.73.73,0,0,1,.27.1.52.52,0,0,1,.18.2.72.72,0,0,1,.07.33.55.55,0,0,1,0,.21.3.3,0,0,1-.1.13.38.38,0,0,1-.16.07l-.22,0L6,28.43a2.26,2.26,0,0,0-.56.14.94.94,0,0,0-.4.29.83.83,0,0,0-.15.53,1,1,0,0,0,.08.42.81.81,0,0,0,.23.29.94.94,0,0,0,.34.17,1.6,1.6,0,0,0,.42.05,1.67,1.67,0,0,0,.41,0,1.12,1.12,0,0,0,.31-.12,1.07,1.07,0,0,0,.24-.2,2.66,2.66,0,0,0,.22-.28h0a1.54,1.54,0,0,0,0,.23.43.43,0,0,0,.07.18.32.32,0,0,0,.14.12.59.59,0,0,0,.24,0h.13l.12,0v-.33l-.12,0a.21.21,0,0,1-.23-.24V28a1.14,1.14,0,0,0-.11-.53.83.83,0,0,0-.28-.32A1,1,0,0,0,6.76,27a2.28,2.28,0,0,0-.43,0,2,2,0,0,0-.51.06,1.15,1.15,0,0,0-.4.19.92.92,0,0,0-.27.34A1.31,1.31,0,0,0,5,28Zm2.1.48V29a1,1,0,0,1-.33.74,1.06,1.06,0,0,1-.36.2A1.35,1.35,0,0,1,6,30a.84.84,0,0,1-.27,0,.69.69,0,0,1-.23-.13.64.64,0,0,1-.16-.2.57.57,0,0,1-.06-.27A.47.47,0,0,1,5.43,29a.94.94,0,0,1,.36-.2,2.84,2.84,0,0,1,.48-.1l.52-.08.19,0a.23.23,0,0,0,.14-.1Z" transform="translate(-0.21 -18.29)" style="fill:#fff"/><path d="M7.93,25.78v4.46h.39V28.36a1.42,1.42,0,0,1,.08-.44,1.06,1.06,0,0,1,.2-.35.92.92,0,0,1,.31-.23,1,1,0,0,1,.42-.08.93.93,0,0,1,.4.08.64.64,0,0,1,.25.21.81.81,0,0,1,.13.31,1.86,1.86,0,0,1,0,.38v2h.39V28.17a2.2,2.2,0,0,0-.06-.52.92.92,0,0,0-.19-.39A.89.89,0,0,0,9.93,27a1.59,1.59,0,0,0-.57-.09,1.18,1.18,0,0,0-.63.18,1,1,0,0,0-.4.47h0V25.78H7.93Z" transform="translate(-0.21 -18.29)" style="fill:#fff"/><path d="M10.88,28h.39a.7.7,0,0,1,.25-.57,1,1,0,0,1,.61-.18,1.8,1.8,0,0,1,.33,0,.73.73,0,0,1,.27.1.52.52,0,0,1,.18.2.72.72,0,0,1,.07.33.55.55,0,0,1,0,.21.3.3,0,0,1-.1.13.38.38,0,0,1-.16.07l-.22,0-.63.08a2.26,2.26,0,0,0-.56.14.94.94,0,0,0-.4.29.83.83,0,0,0-.15.53,1,1,0,0,0,.08.42.81.81,0,0,0,.23.29,1,1,0,0,0,.34.17,1.6,1.6,0,0,0,.42.05,1.67,1.67,0,0,0,.41,0,1.13,1.13,0,0,0,.31-.12,1.07,1.07,0,0,0,.24-.2,2.66,2.66,0,0,0,.22-.28h0a1.5,1.5,0,0,0,0,.23.43.43,0,0,0,.07.18.32.32,0,0,0,.14.12.59.59,0,0,0,.24,0h.13l.12,0v-.33l-.12,0a.21.21,0,0,1-.23-.24V28a1.14,1.14,0,0,0-.11-.53.84.84,0,0,0-.28-.32,1,1,0,0,0-.38-.15,2.28,2.28,0,0,0-.43,0,2,2,0,0,0-.51.06,1.15,1.15,0,0,0-.4.19.92.92,0,0,0-.27.34,1.31,1.31,0,0,0-.12.49Zm2.1.48V29a1,1,0,0,1-.33.74,1.06,1.06,0,0,1-.36.2,1.35,1.35,0,0,1-.43.07.84.84,0,0,1-.27,0,.7.7,0,0,1-.23-.13.64.64,0,0,1-.16-.2.57.57,0,0,1-.06-.27.47.47,0,0,1,.14-.37.94.94,0,0,1,.36-.2,2.83,2.83,0,0,1,.48-.1l.52-.08.19,0a.23.23,0,0,0,.14-.1Z" transform="translate(-0.21 -18.29)" style="fill:#fff"/><path d="M13.79,27v3.22h.39v-1.8a1.86,1.86,0,0,1,.06-.47,1.1,1.1,0,0,1,.17-.37.79.79,0,0,1,.3-.25,1,1,0,0,1,.43-.09.74.74,0,0,1,.32.06.53.53,0,0,1,.21.17.71.71,0,0,1,.11.26,1.35,1.35,0,0,1,0,.31v2.19h.39V28.42a2.27,2.27,0,0,1,0-.43,1.1,1.1,0,0,1,.14-.37.75.75,0,0,1,.27-.26.84.84,0,0,1,.43-.1.72.72,0,0,1,.59.21,1,1,0,0,1,.17.61v2.17h.39V28.05q0-1.13-1.07-1.13a1.22,1.22,0,0,0-.6.16,1,1,0,0,0-.43.47.76.76,0,0,0-.35-.47,1.1,1.1,0,0,0-.58-.16,1.14,1.14,0,0,0-.65.17,1.24,1.24,0,0,0-.41.47h0V27h-.36Z" transform="translate(-0.21 -18.29)" style="fill:#fff"/><path d="M21.34,27.25a1,1,0,0,1,.49.12,1.09,1.09,0,0,1,.35.31,1.42,1.42,0,0,1,.21.44,1.79,1.79,0,0,1,0,1,1.42,1.42,0,0,1-.21.44,1.08,1.08,0,0,1-.35.31,1.08,1.08,0,0,1-1,0,1.08,1.08,0,0,1-.35-.31,1.41,1.41,0,0,1-.21-.44,1.79,1.79,0,0,1,0-1,1.41,1.41,0,0,1,.21-.44,1.08,1.08,0,0,1,.35-.31A1,1,0,0,1,21.34,27.25Zm0-.33a1.48,1.48,0,0,0-.65.14,1.43,1.43,0,0,0-.48.37,1.6,1.6,0,0,0-.29.54,2.22,2.22,0,0,0,0,1.32,1.6,1.6,0,0,0,.29.54,1.39,1.39,0,0,0,.48.37,1.65,1.65,0,0,0,1.31,0,1.39,1.39,0,0,0,.48-.37,1.6,1.6,0,0,0,.29-.54,2.22,2.22,0,0,0,0-1.32,1.6,1.6,0,0,0-.29-.54,1.43,1.43,0,0,0-.48-.37,1.48,1.48,0,0,0-.65-.14Z" transform="translate(-0.21 -18.29)" style="fill:#fff"/><path d="M23.08,27v3.22h.39V28.52a1.24,1.24,0,0,1,.09-.47,1.09,1.09,0,0,1,.25-.37,1.1,1.1,0,0,1,.38-.24,1.19,1.19,0,0,1,.49-.07V27a1.22,1.22,0,0,0-.75.19,1.24,1.24,0,0,0-.47.61h0V27h-.36Z" transform="translate(-0.21 -18.29)" style="fill:#fff"/><path d="M25.3,27V26H24.9v1h-.56v.33h.56v2.21a.58.58,0,0,0,.7.72H26v-.33l-.34,0q-.21,0-.27-.12a.71.71,0,0,1-.05-.3V27.35H26V27H25.3Z" transform="translate(-0.21 -18.29)" style="fill:#fff"/><path d="M26.14,25.78v4.46h.39V28.36a1.42,1.42,0,0,1,.08-.44,1.06,1.06,0,0,1,.2-.35.92.92,0,0,1,.31-.23,1,1,0,0,1,.42-.08.93.93,0,0,1,.4.08.64.64,0,0,1,.25.21.81.81,0,0,1,.13.31,1.86,1.86,0,0,1,0,.38v2h.39V28.17a2.2,2.2,0,0,0-.06-.52.92.92,0,0,0-.19-.39.89.89,0,0,0-.37-.25,1.59,1.59,0,0,0-.57-.09,1.18,1.18,0,0,0-.63.18,1,1,0,0,0-.4.47h0V25.78h-.39Z" transform="translate(-0.21 -18.29)" style="fill:#fff"/><path d="M30.49,27.25a1,1,0,0,1,.49.12,1.08,1.08,0,0,1,.35.31,1.41,1.41,0,0,1,.21.44,1.79,1.79,0,0,1,0,1,1.41,1.41,0,0,1-.21.44,1.08,1.08,0,0,1-.35.31,1.08,1.08,0,0,1-1,0,1.08,1.08,0,0,1-.35-.31,1.42,1.42,0,0,1-.21-.44,1.8,1.8,0,0,1,0-1,1.42,1.42,0,0,1,.21-.44,1.09,1.09,0,0,1,.35-.31A1,1,0,0,1,30.49,27.25Zm0-.33a1.48,1.48,0,0,0-.65.14,1.42,1.42,0,0,0-.48.37,1.6,1.6,0,0,0-.29.54,2.22,2.22,0,0,0,0,1.32,1.6,1.6,0,0,0,.29.54,1.39,1.39,0,0,0,.48.37,1.65,1.65,0,0,0,1.31,0,1.39,1.39,0,0,0,.48-.37,1.59,1.59,0,0,0,.29-.54,2.22,2.22,0,0,0,0-1.32,1.59,1.59,0,0,0-.29-.54,1.43,1.43,0,0,0-.48-.37,1.48,1.48,0,0,0-.65-.14Z" transform="translate(-0.21 -18.29)" style="fill:#fff"/><path d="M35.07,30.24V25.78h-.39v1.85h0a.93.93,0,0,0-.18-.31,1.13,1.13,0,0,0-.27-.22,1.18,1.18,0,0,0-.32-.13,1.42,1.42,0,0,0-.35,0,1.4,1.4,0,0,0-.64.14,1.31,1.31,0,0,0-.45.37,1.58,1.58,0,0,0-.27.54,2.48,2.48,0,0,0,0,1.31,1.58,1.58,0,0,0,.27.54,1.28,1.28,0,0,0,.45.37,1.43,1.43,0,0,0,.64.13,1.31,1.31,0,0,0,.35-.05,1.44,1.44,0,0,0,.33-.14,1.2,1.2,0,0,0,.28-.22.93.93,0,0,0,.18-.29h0v.61Zm-2.58-1.61a2.13,2.13,0,0,1,.06-.5,1.38,1.38,0,0,1,.19-.44,1,1,0,0,1,.33-.32.91.91,0,0,1,.48-.12,1.06,1.06,0,0,1,.53.12,1,1,0,0,1,.35.32,1.3,1.3,0,0,1,.19.44,2.11,2.11,0,0,1,0,1,1.3,1.3,0,0,1-.19.44,1,1,0,0,1-.35.32,1.06,1.06,0,0,1-.53.12.91.91,0,0,1-.48-.12,1,1,0,0,1-.33-.32,1.38,1.38,0,0,1-.19-.44A2.13,2.13,0,0,1,32.48,28.63Z" transform="translate(-0.21 -18.29)" style="fill:#fff"/><path d="M36.8,27.25a1,1,0,0,1,.49.12,1.08,1.08,0,0,1,.35.31,1.41,1.41,0,0,1,.21.44,1.79,1.79,0,0,1,0,1,1.41,1.41,0,0,1-.21.44,1.08,1.08,0,0,1-.35.31,1.08,1.08,0,0,1-1,0,1.08,1.08,0,0,1-.35-.31,1.42,1.42,0,0,1-.21-.44,1.8,1.8,0,0,1,0-1,1.42,1.42,0,0,1,.21-.44,1.09,1.09,0,0,1,.35-.31A1,1,0,0,1,36.8,27.25Zm0-.33a1.48,1.48,0,0,0-.65.14,1.42,1.42,0,0,0-.48.37,1.6,1.6,0,0,0-.29.54,2.22,2.22,0,0,0,0,1.32,1.6,1.6,0,0,0,.29.54,1.39,1.39,0,0,0,.48.37,1.65,1.65,0,0,0,1.31,0,1.39,1.39,0,0,0,.48-.37,1.6,1.6,0,0,0,.29-.54,2.23,2.23,0,0,0,0-1.32,1.6,1.6,0,0,0-.29-.54,1.43,1.43,0,0,0-.48-.37,1.48,1.48,0,0,0-.65-.14Z" transform="translate(-0.21 -18.29)" style="fill:#fff"/><path d="M38.53,27v3.22h.39V28.36a1.42,1.42,0,0,1,.08-.44,1.06,1.06,0,0,1,.2-.35.92.92,0,0,1,.31-.23,1,1,0,0,1,.42-.08.93.93,0,0,1,.4.08.64.64,0,0,1,.25.21.81.81,0,0,1,.13.31,1.86,1.86,0,0,1,0,.38v2h.39V28.17a2.2,2.2,0,0,0-.06-.52.92.92,0,0,0-.19-.39.89.89,0,0,0-.37-.25,1.59,1.59,0,0,0-.57-.09,1.18,1.18,0,0,0-.63.18,1,1,0,0,0-.4.47h0V27h-.39Z" transform="translate(-0.21 -18.29)" style="fill:#fff"/><path d="M42.15,27V26h-.39v1h-.56v.33h.56v2.21a.58.58,0,0,0,.7.72h.35v-.33l-.34,0q-.21,0-.27-.12a.71.71,0,0,1-.05-.3V27.35h.66V27h-.66Z" transform="translate(-0.21 -18.29)" style="fill:#fff"/><path d="M43,25.78v.63h.39v-.63ZM43,27v3.22h.39V27Z" transform="translate(-0.21 -18.29)" style="fill:#fff"/><path d="M46.05,28h.39A1.17,1.17,0,0,0,46,27.2a1.4,1.4,0,0,0-.88-.28,1.48,1.48,0,0,0-.65.14,1.43,1.43,0,0,0-.48.37,1.6,1.6,0,0,0-.29.54,2.22,2.22,0,0,0,0,1.32,1.6,1.6,0,0,0,.29.54,1.39,1.39,0,0,0,.48.37,1.51,1.51,0,0,0,.65.13A1.26,1.26,0,0,0,46,30a1.49,1.49,0,0,0,.43-.92h-.39a1.07,1.07,0,0,1-.1.37,1,1,0,0,1-.21.29.92.92,0,0,1-.29.19.87.87,0,0,1-.34.07,1,1,0,0,1-.49-.12,1.08,1.08,0,0,1-.35-.31,1.42,1.42,0,0,1-.21-.44,1.79,1.79,0,0,1,0-1,1.42,1.42,0,0,1,.21-.44,1.08,1.08,0,0,1,.35-.31,1,1,0,0,1,.49-.12.86.86,0,0,1,.61.21,1.08,1.08,0,0,1,.3.57Z" transform="translate(-0.21 -18.29)" style="fill:#fff"/><path d="M48.58,28H49a1.17,1.17,0,0,0-.11-.46,1,1,0,0,0-.25-.32,1,1,0,0,0-.37-.19,1.57,1.57,0,0,0-.45-.06,1.89,1.89,0,0,0-.43,0,1.32,1.32,0,0,0-.39.16.85.85,0,0,0-.28.28.77.77,0,0,0-.11.42.78.78,0,0,0,.07.35.68.68,0,0,0,.19.24,1.14,1.14,0,0,0,.28.16l.36.12.51.11.26.07a1,1,0,0,1,.23.11.51.51,0,0,1,.16.16.45.45,0,0,1,.06.24.47.47,0,0,1-.08.28.69.69,0,0,1-.22.19,1,1,0,0,1-.28.11,1.47,1.47,0,0,1-.3,0,1.05,1.05,0,0,1-.66-.2.78.78,0,0,1-.29-.6h-.39a1.14,1.14,0,0,0,.4.86,1.48,1.48,0,0,0,.92.27,2.16,2.16,0,0,0,.46-.05,1.29,1.29,0,0,0,.42-.17,1,1,0,0,0,.3-.3.81.81,0,0,0,.12-.45A.79.79,0,0,0,49,29a.84.84,0,0,0-.21-.26,1.07,1.07,0,0,0-.29-.17,1.48,1.48,0,0,0-.33-.09l-.53-.12-.22-.07a1.08,1.08,0,0,1-.22-.1A.58.58,0,0,1,47,28a.37.37,0,0,1-.07-.22.47.47,0,0,1,.07-.26.53.53,0,0,1,.18-.17.82.82,0,0,1,.25-.09l.27,0a1.21,1.21,0,0,1,.32,0,.77.77,0,0,1,.27.13.64.64,0,0,1,.18.22.74.74,0,0,1,.08.32Z" transform="translate(-0.21 -18.29)" style="fill:#fff"/><path d="M24,24.14v0s0,0,0,0a.56.56,0,0,1-.19-.06.1.1,0,0,0-.09,0h0s0,0,0,0,0,0,0,0h0s0,0,0,0a.09.09,0,0,1-.06,0h-.05s0,0,0,0,0,0,0,0,0,0,0,0h-.06a0,0,0,0,0,0,0l-.08,0-.13,0s-.08,0-.14,0h0l-.13,0h0c-.07,0-.12,0-.18,0h-.06s-.05,0-.06,0-.08-.06-.12-.09l-.23-.13-.17-.1a1.29,1.29,0,0,1-.4-.3,2.09,2.09,0,0,0-.16-.14s0,0-.05,0a.06.06,0,0,1-.07-.06.06.06,0,0,0,0-.06.13.13,0,0,1-.07-.07h0s.05,0,.07,0,.08,0,.1.08h0s0,0,0,0a.68.68,0,0,0-.16-.12s-.08,0-.09-.07,0,0,0,0a.17.17,0,0,0-.14-.1.07.07,0,0,0,0-.06,1,1,0,0,0-.24-.2l-.05,0s0,0,0,0,0,0,0,0,0,0,0,0a.54.54,0,0,1-.1-.13v0s0,0,0,0,0,0,0,0a.26.26,0,0,0,.14.09s0,0,.06,0,0,0,0,0,0,0,0,0a.22.22,0,0,0-.12-.1,0,0,0,0,1,0,0c0-.09-.12-.16-.17-.25a.59.59,0,0,0-.15-.17s0,0,0,0,0,0,0,0,0,0,0,0l-.13-.28a.11.11,0,0,1,0,0,.18.18,0,0,0-.06-.16s0,0,0-.07L20.13,21s0,0,0-.06a.22.22,0,0,0,0-.17.39.39,0,0,0,0-.11c.06,0,.07,0,.09.09a.27.27,0,0,0,.06.1.17.17,0,0,1,.06.08s0,0,0,0,0,0,0,0l-.08-.19a1.26,1.26,0,0,0-.06-.14.47.47,0,0,1,0-.1c0-.07-.05-.13-.07-.2s0-.14-.06-.22,0-.09,0-.14l0-.16a.61.61,0,0,0,0-.18.08.08,0,0,1,0,0,1,1,0,0,0,0-.27c0-.08,0-.17,0-.25a1.49,1.49,0,0,1,0-.27c0-.07,0-.08.08-.08h1.46c.06,0,.06,0,.06.06v.1a.92.92,0,0,0,0,.23.06.06,0,0,1,0,0s0,0,0,0,0,0,0,0a.06.06,0,0,0,0-.05,0,0,0,0,1,0,0,0,0,0,0,1,0,0s0,.06,0,.1a.5.5,0,0,0,0,.12,1.7,1.7,0,0,0,.06.18c0,.05,0,.11.06.16a.31.31,0,0,1,0,.11.48.48,0,0,0,.05.16h0c.05,0,.06,0,.07.07A.73.73,0,0,0,22,20l.11.21a.32.32,0,0,0,.08.1h0c.07,0,.08,0,.11.07s0,.05,0,.08.1.09.14.14l.16.14a1.11,1.11,0,0,0,.17.13s0,0,0,.06,0,0,0,0h0l.1.07a1.07,1.07,0,0,1,.17.12.37.37,0,0,0,.14.06l.13.06a.29.29,0,0,0,.11,0s0,0,.06,0l.15.05h0l-.13,0H23.5s0,0,0,0a.69.69,0,0,0,.16.05.36.36,0,0,1,.18.08,0,0,0,0,0,.05,0s.06,0,.09,0a.29.29,0,0,0,.19,0h0s0,0,0,0,0,0,0,0,.09,0,.14,0l0,0,.09,0a1.89,1.89,0,0,1,.33.07h.08a1.81,1.81,0,0,0,.36,0,.44.44,0,0,0,.16,0l.14,0,.14-.05a.36.36,0,0,1,.14,0l.19,0,.14,0a.19.19,0,0,1,.12,0,.2.2,0,0,0,.16,0s.06,0,.05-.08,0,0,0,0l.18-.11.17-.1h0a.15.15,0,0,0,.08,0l.1-.07a.34.34,0,0,0,.09-.08c.07-.07.16-.12.22-.19h0s.07,0,.08,0a.56.56,0,0,1,.1-.12,3.58,3.58,0,0,0,.27-.37.72.72,0,0,0,.08-.19l.1-.36a1.05,1.05,0,0,1,.09-.22l0,0a.1.1,0,0,0,0-.15.09.09,0,0,1,0-.08.57.57,0,0,1,0-.13.06.06,0,0,0,0,0,.7.7,0,0,1,0-.22,3.59,3.59,0,0,0,0-.42c0-.1,0-.09.09-.09h.08a0,0,0,0,1,0,0,.77.77,0,0,1,0,.09.48.48,0,0,0,0,.25s0,0,0,.06,0,0,0,0,0,0,0,0v-.12s0,0,0,0,0,0,0,0a.15.15,0,0,0,.11,0,.08.08,0,0,0,0-.09.19.19,0,0,0-.09-.07.07.07,0,0,1,0-.09s0,0,0,0h.05c.05,0,.05,0,.05.06s0,.08,0,.11,0,0,0,0,0,0,0,0,0-.1,0-.14,0,0,0,0h0c.05,0,.05,0,.05.05v.06s0,0,0,0,0,0,0,0v-.1s0,0,0,0,0,0,0,0,0,0,0,.05h0s0,0,0,.06a.13.13,0,0,0,.05.06.07.07,0,0,1,0,.05,2.09,2.09,0,0,1,0,.32,1.76,1.76,0,0,1,0,.2,1.29,1.29,0,0,1,0,.13c0,.05,0,.12,0,.17h0a.4.4,0,0,1,0,.17,1.09,1.09,0,0,1-.06.2,1.1,1.1,0,0,0,0,.11,2.11,2.11,0,0,0-.07.21c0,.08-.06.16-.08.24s0,.09-.05.13l-.11.25a.07.07,0,0,0,0,0h0s0,0,0,0l.14-.23c0-.07.08-.15.11-.22s0-.07.05-.11A1,1,0,0,0,28.8,20a.24.24,0,0,1,0-.05l.08-.22c0-.05,0-.11,0-.16s0-.15.05-.21,0-.12,0-.16h0c0-.1,0-.19,0-.29s0-.08,0-.13,0,0,0,0,0,0,0,0,0,.06,0,.1,0,0,0,0,0,0,0,0v-.42c0-.06,0-.06.06-.06a.9.9,0,0,0,.19,0s0,0,0,0v.13s0,.09,0,.13a1,1,0,0,1,0,.28.92.92,0,0,1-.06.24s0,.06,0,.07,0,0,0,0a.16.16,0,0,0,0-.08c0-.08,0-.16.06-.24a1.48,1.48,0,0,1,0-.27s0,0,.07,0,0,0,0,0,0,.1.1.1,0,0,0,0a1.6,1.6,0,0,0,0,.18,1.53,1.53,0,0,1,0,.17c0,.05,0,.11,0,.17s-.05.21-.09.32a.8.8,0,0,0,0,.13.42.42,0,0,1-.05.14.47.47,0,0,0,0,.11s0,0,0,.06-.05.14-.09.21a.34.34,0,0,1,0,.07,0,0,0,0,0,0,0s0,0,0,0a3.91,3.91,0,0,0,.22-.4,3.53,3.53,0,0,0,.15-.38c0-.09.06-.18.08-.28s0-.11,0-.16,0-.13,0-.19a.43.43,0,0,0,0-.13c0-.05,0-.06.06-.07s0,0,0,0,0,0,0-.05a.05.05,0,0,1,0,0v-.16s0,0,0,0H30s0,0,0,0,0,.3,0,.45a1.53,1.53,0,0,1,0,.24,1.45,1.45,0,0,0,0,.18c0,.05,0,.1,0,.15s0,.13-.06.2a0,0,0,0,0,0,0,.29.29,0,0,0,.06-.11,1.87,1.87,0,0,0,.07-.23l0-.14a.56.56,0,0,1,0-.16,0,0,0,0,0,0,0,2.7,2.7,0,0,0,0-.4V18.6s0-.05,0-.06a.08.08,0,0,1,.08,0h0s0,0,0,0,0,0,0,0a.21.21,0,0,1-.1-.08s0,0,0,0h.12a0,0,0,0,1,0,0s0,0,0,0a.22.22,0,0,0,0,.09s0,0,0,0,0,0,0,0V18.4s0,0,0,0h.06s0,0,0,0a.06.06,0,0,1,0,0c0,.16,0,.32,0,.48s0,.11,0,.17,0,0,0,0,0,0,0,0,0-.13,0-.19a.47.47,0,0,1,0-.19,1.15,1.15,0,0,0,0-.28s0,0,0,0h.07s0,0,0,0,0,0,0,0,.1-.06.17-.05,0,0,0,0a.4.4,0,0,1,0,.06.19.19,0,0,0,0,.14.1.1,0,0,1,0,.07,0,0,0,0,1,0,0s0,0,0,0a.77.77,0,0,0,0,.23,1.36,1.36,0,0,0,0,.19.21.21,0,0,1,0,.14.19.19,0,0,0,0,0s0,0,0,0h0s0,0,0,0,0,0,0-.05,0-.21,0-.31,0-.05,0,0,0,0,0,0v-.12s0,0,0,0,0,0,0,0,0,0,0,0c0,.17,0,.33,0,.5s0,.13,0,.2,0,0,0,0a2.13,2.13,0,0,1,0-.24.09.09,0,0,1,0,.07.34.34,0,0,0,0,.16s0,.07,0,.11a.09.09,0,0,0,0,0v.15h0l0-.13a0,0,0,0,0,0,0,.37.37,0,0,1,0,.14l0,.07a.06.06,0,0,0,0,.07,0,0,0,0,1,0,0,.54.54,0,0,0,0,.1.13.13,0,0,1,0,.06.38.38,0,0,1-.1.07.12.12,0,0,0-.06.12.05.05,0,0,1,0,0,0,0,0,0,0,0,0s0,0,0,0,0,.09,0,.12a.41.41,0,0,0-.05.14.79.79,0,0,1-.06.15c0,.08-.08.16-.11.24a.43.43,0,0,0,0,.18s0,0,0,0,0,0,0,0a0,0,0,0,0,0,0h0s0,0,0,0a.51.51,0,0,1,.06-.14l0-.05a.14.14,0,0,1,0-.1.93.93,0,0,1-.06.25l-.06.14s0,0-.06,0a.06.06,0,0,0-.05,0,.88.88,0,0,0-.08.2s0,0,0,0,0,0,0,0a.06.06,0,0,1,0,0,1,1,0,0,0-.19.31.17.17,0,0,0,0,.06s0,0-.06,0a1.48,1.48,0,0,1-.21.26s0,0,0,0,0,0,0,0a.68.68,0,0,0,.06-.13s0,0,0,0-.06,0-.07,0a1.12,1.12,0,0,1-.18.22s0,.07-.08.1h0s0,0,0,.06l-.12.12a.09.09,0,0,1-.06,0c-.05,0-.07,0-.07.07s0,0,0,.05h0a1.75,1.75,0,0,1-.27.19.45.45,0,0,1-.13.06,0,0,0,0,0,0,0,.26.26,0,0,1-.09.12s-.05,0-.05.07h0a2,2,0,0,1-.21.12s0,0,0,0a0,0,0,0,0,0,0h.07s0,0,0,0a.56.56,0,0,1-.15.11.69.69,0,0,0-.18.14l-.07,0s0,0,0,0,0,0,0,0l.05,0s0,0,0,0,0,0,0,0l-.1.05-.15.09h0a.17.17,0,0,1-.1.05l-.06,0s0,0,0,0,0,0,0,0a.3.3,0,0,1,.08,0l.09,0,.11-.08a.21.21,0,0,1,.13-.05s.05,0,.07,0l.13-.08s0,0,0,0,0,0,0,0l-.25.12-.26.13a.56.56,0,0,0-.13.06.24.24,0,0,0-.05.06l-.11.15s-.06,0-.09,0,0,0-.07,0l.08,0s-.08,0-.11,0a.31.31,0,0,0,.1-.07s0,0,0-.05a0,0,0,0,0-.06,0L26.9,24s0,0,0,.05,0,0,0,0l-.14,0-.12,0-.12,0a.77.77,0,0,0-.17,0h0a.92.92,0,0,1-.23,0,.06.06,0,0,0-.06,0h0s-.08,0-.11,0h-.1a1.15,1.15,0,0,1-.28,0h-.06c-.08,0-.16,0-.23,0h0s0,0,0,0,0,0,0,0,0,0,0,0l-.08,0c-.07,0-.13,0-.2,0s0,0,0,0h0s0,0,0,0H25s0,0,0,0a.12.12,0,0,0-.08,0H24.8l-.08,0a.08.08,0,0,0-.09,0,.06.06,0,0,1-.07,0s-.09,0-.13,0h0s0,0,0,0h0a.22.22,0,0,0-.13,0s0,0,0,0,0,0,0,0,.05,0,.07,0,0,0,0,0h-.18s-.08,0-.14,0Zm2.88-.41a.26.26,0,0,0-.14.05l-.06,0a.55.55,0,0,0-.15,0l-.21,0-.14,0a.52.52,0,0,1-.16,0,0,0,0,0,0,0,0s0,0,0,0a.13.13,0,0,1,.08,0s0,0,.06,0a.35.35,0,0,1,.19-.06h0a.76.76,0,0,1,.17,0,.37.37,0,0,1,.16,0h0a.45.45,0,0,1,.12,0l.17-.06.1,0s.09,0,.13,0a.18.18,0,0,1,.07-.05.69.69,0,0,0,.18-.08,2,2,0,0,0,.29-.18.89.89,0,0,1,.18-.11.51.51,0,0,1,.12-.05.22.22,0,0,0,.11-.08s0,0,0,0,0,0,0,0-.06,0-.09,0a.32.32,0,0,0-.14.06l-.1.06s-.08,0-.1.08,0,0,0,0a.13.13,0,0,0-.09,0c-.12,0-.23.12-.35.16l-.23.09-.08,0A.12.12,0,0,1,26.93,23.73Zm-2.6.2h0a0,0,0,0,0,0,0s0,0,0,0l.21,0,.23,0c.15,0,.3,0,.45,0h.06a.25.25,0,0,0,.12,0c.05,0,.1,0,.15,0h0s.06,0,.09,0a.4.4,0,0,0,.15,0,1.29,1.29,0,0,0,.19-.07s0,0,0,0,0,0,0,0-.08,0-.12,0h-.18l-.46,0c-.05,0-.09,0-.14,0s-.3,0-.46,0h0C24.48,23.94,24.4,24,24.33,23.92Zm3-1.62s.05,0,.07,0,.25-.12.37-.2l.24-.15.29-.22s0,0,0,0,0,0-.05,0a1.93,1.93,0,0,0-.16.12l-.21.15-.18.11-.15.09-.24.15s0,0,0,0S27.29,22.3,27.3,22.3Zm1.92-1.68a.05.05,0,0,0,0-.06s0,0,0,0l-.09.17-.1.15c-.07.11-.16.2-.23.29l-.14.15s0,0,0,0,0,0,0,0a1.86,1.86,0,0,0,.17-.19c0-.07.11-.11.15-.18a.68.68,0,0,1,.11-.15h0a.43.43,0,0,1,.07-.1.62.62,0,0,1,.07-.11A0,0,0,0,0,29.22,20.62Zm-5.94,3h0l-.2-.08-.32-.16-.17-.09a1,1,0,0,1-.15-.1s0,0,0,0,0,.07.06.08a.92.92,0,0,1,.18.08c.06,0,.14,0,.19.11h0l.18.08a1,1,0,0,0,.24.08Zm6.64-2.32s0,0,0,0,0,0,0,0a.36.36,0,0,0,0-.1c0-.06.06-.1.09-.16l.06-.11.07-.15a0,0,0,0,0,0,0s0,0,0,0l0,0a.71.71,0,0,1-.1.14.43.43,0,0,0-.09.17,1.19,1.19,0,0,1-.05.19A0,0,0,0,1,29.92,21.33Zm-1.13-2.43s0-.05-.05-.05a.24.24,0,0,1-.11,0s0,0,0,0a.1.1,0,0,0,.13.1S28.8,18.94,28.79,18.89Zm1.6.77a.06.06,0,0,0,0-.06.38.38,0,0,1,0-.12l0-.15s0,0,0,0,0,0,0,0a.06.06,0,0,0,0,0c0,.06,0,.1,0,.16h0S30.43,19.61,30.39,19.66Zm-1,.36v0s-.06,0-.06,0-.06.07,0,.11,0,0,0,0a0,0,0,0,0,0,0s0,0,0,0h0S29.39,20.06,29.42,20Zm.18-.65a.46.46,0,0,1,.07-.2s0,0,0,0,0,0,0,0,0,0,0,0a.12.12,0,0,1,0,.06C29.56,19.27,29.53,19.31,29.6,19.37Zm1.06-.07s0,0,0,0,0,.06,0,.07,0,0,0,.05a0,0,0,0,0,0,0s0,0,0,0,0,0,0,0,0-.05,0-.08A.06.06,0,0,0,30.67,19.3Zm-.3-.06v0s0,0,0,0,0,0,0,0,0,.1,0,.15h0s0,0,0,0S30.38,19.28,30.36,19.24ZM29,22.51h0s-.1.08-.15.13,0,0,0,0,0,0,0,0l.1-.1S28.93,22.52,29,22.51Zm.34-2.31v0s0,0,0,0,0,0,0,0a.94.94,0,0,1-.08.15.06.06,0,0,0,0,0s0,0,0,0h0l.07-.11A.07.07,0,0,0,29.3,20.2Zm0-1.18a.05.05,0,0,0,.06,0s0-.05-.07-.05a.05.05,0,0,0-.05.05S29.28,19,29.31,19Zm1,.4v0s0,0,0,0,0,0,0,0,0,.1,0,.14a.09.09,0,0,0,0,.07h0A.48.48,0,0,0,30.29,19.42ZM27.3,21h0s.05-.08.08-.11a0,0,0,0,0,0,0h0l-.1.1s0,0,0,0Zm3.32-1.42v0s0,0,0,0,0,0,0,0a.37.37,0,0,1,0,.16,0,0,0,0,0,0,0h0s0,0,0,0,0,0,0-.07A.08.08,0,0,0,30.63,19.57Zm.12-1v0s0,0,0,0,0,0,0,0a.27.27,0,0,0,0,.13s0,0,0,0S30.75,18.58,30.75,18.55Z" transform="translate(-0.21 -18.29)" style="fill:#fff"/><path d="M28.08,18.41s0,.07,0,.1a.17.17,0,0,0,0,.08.26.26,0,0,1,0,.17,1.21,1.21,0,0,0,0,.19s0,.09,0,.13,0,0,0,0a2.14,2.14,0,0,0,0,.21s0,0,0,0v-.12s0,0,0,0,0,0,0,0a.24.24,0,0,0,0,0,.11.11,0,0,1,0,.1s0,.07,0,.09,0,0,0,0,0,0,0,0a.15.15,0,0,1,0,.07.07.07,0,0,0,0,0c0,.06,0,.12,0,.18s0,0,0,0a.17.17,0,0,0-.05.13s0,0,0,0,0,0,0,0l-.16.33c0,.07-.09.14-.13.21a.73.73,0,0,1-.07.1l-.09.1-.09.07s0,.06-.07.07h0c-.07,0-.09,0-.11.07a.94.94,0,0,1-.19.21s0,0,0,0,0,0,0,0L27,21s0,0,0,0a0,0,0,0,0,0,0l0,0a0,0,0,0,1,0,0s0,0,0,0l.21-.16a2.91,2.91,0,0,0,.28-.29l.18-.22a2.75,2.75,0,0,0,.19-.33,3,3,0,0,0,.13-.3c0-.06,0-.12,0-.18l0-.06a.23.23,0,0,0,0-.08.76.76,0,0,1,0-.19A.4.4,0,0,0,28,19a1,1,0,0,1,0-.22.86.86,0,0,0,0-.13c0-.07,0-.14,0-.21Z" transform="translate(-0.21 -18.29)" style="fill:#fff"/><path d="M28.36,23.29a1.3,1.3,0,0,0,.17-.13s0,0,.07,0h0a.44.44,0,0,1,.09-.07s0,0,0,0,0,0,0,0l0,0a.21.21,0,0,0-.07.09s-.06,0-.09.05l-.06,0a0,0,0,0,0,0,0s0,0,0,0l0,0a.1.1,0,0,1,.09,0s.06,0,.07-.05.06-.06.1-.08.09,0,.11-.09h0A.07.07,0,0,0,29,23a.07.07,0,0,1,0,0,.14.14,0,0,0,.08-.08.07.07,0,0,1,0,0,.35.35,0,0,0,.19-.22.1.1,0,0,1,0,0s0,0,0,0,0,0,0,0l0,0a0,0,0,0,0,0,0s0,0,0,0l.08-.1a.29.29,0,0,0,.07-.09l0,0c.07,0,.1-.09.15-.13a.52.52,0,0,0,.06-.11l0-.06a.15.15,0,0,1,0,.1,1.07,1.07,0,0,1-.28.35s0,0-.06,0a2,2,0,0,1-.33.35l-.22.2a.93.93,0,0,1-.29.17c-.1,0-.18.1-.28.14s0,0,0,0,0,0,0,0a.12.12,0,0,0,0-.11Z" transform="translate(-0.21 -18.29)" style="fill:#fff"/><path d="M26,21.49l.08,0,0,0s0,0,0,0h0a.82.82,0,0,0,.23-.09.15.15,0,0,1,.09,0s.08,0,.11,0,0,0,0,0,0,0,0,0a.63.63,0,0,0,.16-.09h0s0,0,0,0l0,0s0,0,0,0,0,0,0,0a1,1,0,0,1-.21.12l-.16.08-.17.06-.05,0A.05.05,0,0,1,26,21.49Z" transform="translate(-0.21 -18.29)" style="fill:#fff"/><path d="M19.67,19.53v-.07h0s0,0,0,.08a0,0,0,0,0,0,0s0,0,0,0,0,0,0,0,0,0,0,0,0,0,0,0a.19.19,0,0,1,0,.09v.06a.58.58,0,0,0,.07.27.12.12,0,0,1,0,.1h0l0,0s0-.09,0-.14a.08.08,0,0,0,0-.09s0,0,0,0,0,0,0,.05,0,0,0,0h0a0,0,0,0,1,0,0C19.71,19.69,19.66,19.62,19.67,19.53Z" transform="translate(-0.21 -18.29)" style="fill:#fff"/><path d="M30.48,20.95s0-.07,0-.1h0c0-.06,0-.09,0-.14s0,0,0-.07.08-.11.08-.19h0a.06.06,0,0,0,0,0h0s0,0,0,0,0-.11,0-.17,0-.05,0-.08h0s0,0,0,.06a.14.14,0,0,0,0,.1,0,0,0,0,1,0,0,0,0,0,0,0,0,.05,0,0,0,0,1,0,0s0,.09-.05.13a.23.23,0,0,0,0,.1.11.11,0,0,1,0,.06.26.26,0,0,0-.08.15h0Z" transform="translate(-0.21 -18.29)" style="fill:#fff"/><path d="M25.32,21.62c-.05,0-.05,0-.08-.05s0,0,0,0h0a2,2,0,0,0,.2,0c.08,0,.16,0,.25,0l.06,0h0s0,0,0,0-.06.05-.1.07a1.18,1.18,0,0,1-.29,0S25.35,21.63,25.32,21.62Z" transform="translate(-0.21 -18.29)" style="fill:#fff"/><path d="M29.78,18.48v.08s0,0,0,0,0,0,0,0,0,0-.06,0-.11-.05-.08-.13,0,0,0,0,.09,0,.15,0,.05,0,.05.05Z" transform="translate(-0.21 -18.29)" style="fill:#fff"/><path d="M25.43,24.38h-.26s0,0,0,0a0,0,0,0,1,0,0,.38.38,0,0,1,.17,0s.09,0,.13,0a.49.49,0,0,0,.18,0h0a1.09,1.09,0,0,1,.21,0s.06,0,.09,0h0s0,0,0,0a.15.15,0,0,1-.16,0s0,0-.07,0,0,0,0,0,0,0,0,0h-.26Z" transform="translate(-0.21 -18.29)" style="fill:#fff"/><path d="M19.88,20.32l0,.11,0,.09s0,0,0,0,0,0,0,0l-.09-.17a.33.33,0,0,1,0-.08l0-.1a.44.44,0,0,0,0-.1s0,0,0,0,0,0,0,0,0,0,.05,0,0,0,0,.08,0,.06,0,.09h0s0,0,0,0,0,0,0,0,0,0,0,0,0,0,0,.06,0,.06,0,0,0,0,0,0S19.88,20.3,19.88,20.32Z" transform="translate(-0.21 -18.29)" style="fill:#fff"/><path d="M19.68,18.68s0,0,0,0a.59.59,0,0,1,0,.08.22.22,0,0,0,0,.16.06.06,0,0,1,0,.06.11.11,0,0,0,0,.13.1.1,0,0,1,0,.08s0,0,0,0,0,.06,0,.09h0a0,0,0,0,0,0,0h0c0-.06-.06-.1,0-.17a.15.15,0,0,0,0-.12.14.14,0,0,1,0-.06v-.21S19.66,18.69,19.68,18.68Z" transform="translate(-0.21 -18.29)" style="fill:#fff"/><path d="M24,24.14a.12.12,0,0,0,.08,0h0s0,0,0,0,0,0,0,0h0s0,0,0,0,0,0,0,0a.14.14,0,0,1-.1,0h0a.33.33,0,0,1-.18,0s0,0-.05,0a.41.41,0,0,1,.23,0Z" transform="translate(-0.21 -18.29)" style="fill:#fff"/><path d="M26.69,24.22a.48.48,0,0,0-.21,0h0a0,0,0,0,1,0,0s0,0,0,0a.77.77,0,0,0,.23-.05.14.14,0,0,0,.08,0,0,0,0,0,1,0,0s.06,0,.1,0h0s0,0,0,0l-.16,0Z" transform="translate(-0.21 -18.29)" style="fill:#fff"/><path d="M21.33,22.64a.07.07,0,0,1-.06,0s0,0,0,0,0,0,0,0v0a0,0,0,0,1,0,0,.34.34,0,0,0-.11-.13L21,22.43a0,0,0,0,1,0,0s0,0,0,0l.09.08s0,0,.1,0,0,0,0,0S21.32,22.61,21.33,22.64Z" transform="translate(-0.21 -18.29)" style="fill:#fff"/><path d="M28.08,23.65a.15.15,0,0,1,.16-.08A.5.5,0,0,1,28.08,23.65Z" transform="translate(-0.21 -18.29)" style="fill:#fff"/></svg>