<svg id="da73991b-b655-4267-b582-a18a563d5c0d" data-name="Layer 1" xmlns="http://www.w3.org/2000/svg" viewBox="0 0 364.59 149.33"><title>logo-white</title><path d="M33.18,102a7.39,7.39,0,0,1,7.61-7.57,9.16,9.16,0,0,1,4.93,1.55l-1,1.57a7.41,7.41,0,0,0-3.92-1.2,5.65,5.65,0,0,0,0,11.28,6.79,6.79,0,0,0,3.17-.92V103.9H41.21V102h4.86v5.66a9.25,9.25,0,0,1-5.28,1.85A7.41,7.41,0,0,1,33.18,102Z" style="fill:#fff"/><path d="M53.31,109.31H51.13V94.59h4.63c2.7,0,5,1.53,5,4.42a4.14,4.14,0,0,1-3.27,3.92l4.32,6.39H59.37l-4.07-6.14h-2Zm0-8h2.49c1.45,0,2.83-.88,2.83-2.26a2.62,2.62,0,0,0-2.87-2.5H53.31Z" style="fill:#fff"/><path d="M67.61,109.31H65.3l7-15.16,7,15.16H77l-1.7-3.84h-6Zm2.49-5.75h4.44l-2.2-4.84Z" style="fill:#fff"/><path d="M94.07,109.31H91.89v-6.41H85.72v6.41H83.54V94.59h2.18V101h6.18V94.59h2.18Z" style="fill:#fff"/><path d="M100.59,109.31H98.28l7-15.16,7,15.16H110l-1.7-3.84h-6Zm2.49-5.75h4.44l-2.2-4.84Z" style="fill:#fff"/><path d="M127.43,99.43l-4.36,4.51-4.38-4.51v9.88h-2.18V94.15L123.1,101l6.52-6.81v15.16h-2.18Z" style="fill:#fff"/><path d="M141.76,101.93a7.55,7.55,0,1,1,7.57,7.57A7.58,7.58,0,0,1,141.76,101.93Zm2.24,0a5.32,5.32,0,1,0,5.33-5.62A5.53,5.53,0,0,0,144,101.93Z" style="fill:#fff"/><path d="M164,109.31h-2.18V94.59h4.63c2.7,0,5,1.53,5,4.42a4.14,4.14,0,0,1-3.27,3.92l4.32,6.39h-2.49L166,103.17h-2Zm0-8h2.49c1.45,0,2.83-.88,2.83-2.26a2.62,2.62,0,0,0-2.87-2.5H164Z" style="fill:#fff"/><path d="M186.93,96.5h-5v12.81h-2.18V96.5h-5V94.59h12.22Z" style="fill:#fff"/><path d="M202.06,109.31h-2.18v-6.41H193.7v6.41h-2.18V94.59h2.18V101h6.18V94.59h2.18Z" style="fill:#fff"/><path d="M207,101.93a7.55,7.55,0,1,1,7.57,7.57A7.58,7.58,0,0,1,207,101.93Zm2.24,0a5.32,5.32,0,1,0,5.33-5.62A5.53,5.53,0,0,0,209.27,101.93Z" style="fill:#fff"/><path d="M227.1,109.31V94.59h4.63a7.36,7.36,0,1,1,0,14.72Zm4.63-1.91a5.45,5.45,0,0,0,0-10.9h-2.45v10.9Z" style="fill:#fff"/><path d="M243.89,101.93a7.55,7.55,0,1,1,7.57,7.57A7.58,7.58,0,0,1,243.89,101.93Zm2.24,0a5.32,5.32,0,1,0,5.33-5.62A5.53,5.53,0,0,0,246.13,101.93Z" style="fill:#fff"/><path d="M266.15,99.56v9.75H264V94.15l10.23,10.36V94.59h2.18V109.9Z" style="fill:#fff"/><path d="M293.18,96.5h-5v12.81H286V96.5h-5V94.59h12.22Z" style="fill:#fff"/><path d="M300,94.59v14.72h-2.18V94.59Z" style="fill:#fff"/><path d="M305,102a7.64,7.64,0,0,1,7.61-7.55A9,9,0,0,1,317.54,96l-1,1.57a7.08,7.08,0,0,0-3.88-1.24,5.65,5.65,0,0,0,0,11.28,7.46,7.46,0,0,0,4.19-1.49l1,1.53a8.82,8.82,0,0,1-5.22,1.87A7.64,7.64,0,0,1,305,102Z" style="fill:#fff"/><path d="M322.53,107.84l1.09-1.49a5.48,5.48,0,0,0,3.54,1.24c1.8,0,2.6-.78,2.6-2.2,0-3.44-7-2.06-7-7,0-3.08,2.35-4,4.32-4a6.8,6.8,0,0,1,4.51,1.68l-1.09,1.47a5.28,5.28,0,0,0-3.42-1.24,2,2,0,0,0-2.16,2.1c0,1.17,1.47,1.87,2.6,2.29,2.1.76,4.36,1.87,4.36,4.7,0,3.1-2.16,4.11-4.76,4.11A7,7,0,0,1,322.53,107.84Z" style="fill:#fff"/><path d="M95.58,137.2c1.06-.26,1.15-.78,1.15-1.25V129.1h1.36v6.63c0,1.44-.46,2.2-2.22,2.67Z" style="fill:#fff"/><path d="M101.18,133.68a4.71,4.71,0,1,1,4.73,4.73A4.73,4.73,0,0,1,101.18,133.68Zm1.4,0a3.32,3.32,0,1,0,3.33-3.51A3.45,3.45,0,0,0,102.58,133.68Z" style="fill:#fff"/><path d="M120.28,138.29h-1.36v-4h-3.85v4h-1.36V129.1h1.36v4h3.85v-4h1.36Z" style="fill:#fff"/><path d="M125,132.2v6.09h-1.36v-9.46L130,135.3V129.1h1.36v9.56Z" style="fill:#fff"/><path d="M140.91,133.71a4.61,4.61,0,0,1,4.75-4.73,5.71,5.71,0,0,1,3.08,1l-.63,1a4.63,4.63,0,0,0-2.45-.75,3.52,3.52,0,0,0,0,7,4.24,4.24,0,0,0,2-.57v-1.73h-1.72v-1.19h3v3.53a5.77,5.77,0,0,1-3.29,1.16A4.63,4.63,0,0,1,140.91,133.71Z" style="fill:#fff"/><path d="M153.46,138.29H152.1V129.1H155c1.68,0,3.15,1,3.15,2.76a2.59,2.59,0,0,1-2,2.45l2.7,4h-1.55l-2.54-3.83h-1.24Zm0-5H155a1.6,1.6,0,0,0,1.77-1.41A1.63,1.63,0,0,0,155,130.3h-1.53Z" style="fill:#fff"/><path d="M162.38,138.29h-1.44l4.39-9.46,4.37,9.46h-1.44l-1.06-2.4h-3.75Zm1.55-3.59h2.77l-1.37-3Z" style="fill:#fff"/><path d="M178.89,138.29h-1.36v-4h-3.85v4h-1.36V129.1h1.36v4h3.85v-4h1.36Z" style="fill:#fff"/><path d="M183,138.29h-1.44l4.39-9.46,4.37,9.46h-1.44l-1.06-2.4H184Zm1.55-3.59h2.77l-1.37-3Z" style="fill:#fff"/><path d="M199.7,132.12,197,134.94l-2.73-2.82v6.17h-1.36v-9.46l4.1,4.25,4.07-4.25v9.46H199.7Z" style="fill:#fff"/><path d="M210.79,138.29V129.1h2.89a4.59,4.59,0,1,1,0,9.19Zm2.89-1.19a3.4,3.4,0,0,0,0-6.8h-1.53v6.8Z" style="fill:#fff"/><path d="M221.49,138.29V129.1h2.89a4.59,4.59,0,1,1,0,9.19Zm2.89-1.19a3.4,3.4,0,0,0,0-6.8h-1.53v6.8Z" style="fill:#fff"/><path d="M231.71,137.37l.68-.93a3.42,3.42,0,0,0,2.21.78c1.12,0,1.62-.49,1.62-1.37,0-2.15-4.34-1.29-4.34-4.37a2.43,2.43,0,0,1,2.7-2.51,4.25,4.25,0,0,1,2.82,1l-.68.92a3.29,3.29,0,0,0-2.14-.78,1.23,1.23,0,0,0-1.35,1.31c0,.73.92,1.17,1.62,1.43,1.31.48,2.72,1.17,2.72,2.94,0,1.93-1.35,2.57-3,2.57A4.4,4.4,0,0,1,231.71,137.37Z" style="fill:#fff"/><path d="M253.93,132.12l-2.72,2.82-2.73-2.82v6.17h-1.36v-9.46l4.1,4.25,4.07-4.25v9.46h-1.36Z" style="fill:#fff"/><path d="M258.63,138.29V129.1h2.89a4.59,4.59,0,1,1,0,9.19Zm2.89-1.19a3.4,3.4,0,0,0,0-6.8H260v6.8Z" style="fill:#fff"/><path d="M170.91,77v-.31c0-.16-.08-.23-.26-.26a4.31,4.31,0,0,1-1.48-.49.79.79,0,0,0-.73,0,.46.46,0,0,1-.26.1c-.1,0-.26.05-.28-.1s.15-.08.23-.08.16,0,.18-.1-.16-.08-.26-.08a.68.68,0,0,1-.49-.13.29.29,0,0,0-.21,0c-.08,0-.16,0-.18.08s.08.08.13.1.18,0,.18.1-.13.08-.21.1a1.46,1.46,0,0,1-.34,0c-.05,0-.16-.05-.13-.1a.2.2,0,0,0-.08-.31,1.4,1.4,0,0,0-.6-.29c-.36-.08-.67-.23-1-.31s-.65-.39-1.06-.18c-.08,0-.13,0-.21-.05-.34-.13-.67-.26-1-.36a.47.47,0,0,0-.26,0c-.52.29-.93-.05-1.4-.16a1.41,1.41,0,0,0-.47,0c-.21,0-.39,0-.47-.23-.18-.42-.62-.47-.93-.7-.57-.39-1.22-.65-1.79-1s-.91-.54-1.35-.8A10,10,0,0,1,153.1,69a16.2,16.2,0,0,0-1.27-1.06c-.1-.1-.26-.08-.39-.08a.46.46,0,0,1-.52-.49.49.49,0,0,0-.36-.44,1,1,0,0,1-.57-.57c.08,0,.18,0,.23,0,.23-.21.39,0,.52.13s.6.34.8.6a.19.19,0,0,0,.23,0c.08-.08,0-.13-.08-.18a5.24,5.24,0,0,0-1.22-.91c-.23-.16-.62-.18-.7-.54.1-.05.36.1.31-.16a1.31,1.31,0,0,0-1.06-.78.54.54,0,0,0-.18-.47A7.41,7.41,0,0,0,147,62.45a2.87,2.87,0,0,1-.41-.36c-.13-.1-.26-.18-.36,0s-.23.13-.36.18-.18-.16-.26-.21a4.18,4.18,0,0,1-.75-1l-.1-.18c0-.08-.05-.21.05-.26s.13.05.21.13a2,2,0,0,0,1.09.73c.15,0,.31.21.47.36s.23.13.34,0,.1-.23,0-.36a1.71,1.71,0,0,0-.93-.78.25.25,0,0,1-.21-.18c-.36-.7-.93-1.25-1.35-1.92a4.6,4.6,0,0,0-1.14-1.32c-.05-.05-.1-.16-.21-.13s0,.13-.08.21,0,.16-.05.18l-1-2.18a.87.87,0,0,1-.05-.36,1.42,1.42,0,0,0-.47-1.25c-.18-.15-.05-.39-.18-.57s-.44-.62-.7-.91c-.13-.13-.13-.23-.05-.44a1.72,1.72,0,0,0,0-1.3,3.05,3.05,0,0,0-.26-.83c.44.05.57.36.7.67a2.1,2.1,0,0,0,.49.78,1.3,1.3,0,0,1,.49.62c0,.1.16.26.26.21s0-.21-.05-.34c-.23-.49-.44-1-.65-1.48A9.75,9.75,0,0,0,141,49.1a3.62,3.62,0,0,1-.26-.75c-.18-.52-.41-1-.54-1.56s-.34-1.11-.47-1.68c-.08-.36-.16-.73-.26-1.06s-.21-.8-.31-1.22a4.74,4.74,0,0,0-.31-1.37.6.6,0,0,1-.05-.31,8,8,0,0,0-.26-2.1c-.1-.65-.08-1.3-.13-1.94a11.53,11.53,0,0,1-.18-2.12c.05-.57,0-.6.62-.6h11.33c.44,0,.44,0,.44.47v.8a7.1,7.1,0,0,0,.34,1.79.44.44,0,0,1,0,.18c0,.08-.05.26.1.23s.08-.16.08-.23a.5.5,0,0,0-.13-.41.18.18,0,0,1,0-.29.18.18,0,0,1,.26.13c.05.29.23.49.26.78a3.88,3.88,0,0,0,.23.91,13.17,13.17,0,0,0,.49,1.43c.15.39.28.83.47,1.22a2.39,2.39,0,0,1,.29.86,3.7,3.7,0,0,0,.41,1.25.22.22,0,0,0,.13.08c.41-.08.47.28.54.52a5.64,5.64,0,0,0,.49,1c.28.54.6,1.06.88,1.63a2.49,2.49,0,0,0,.65.8s.1.08.13,0c.55-.21.62.31.88.55s.21.41.31.62c.23.52.75.73,1.11,1.09a16.17,16.17,0,0,0,1.27,1.06,8.61,8.61,0,0,0,1.32,1c.18.1.18.34.29.49s.08.21.23.21.1.05.16.1a3.23,3.23,0,0,0,.75.57,8.29,8.29,0,0,1,1.35.93,2.85,2.85,0,0,0,1.06.49,8.53,8.53,0,0,1,1,.44,2.24,2.24,0,0,0,.83.28c.18,0,.28.16.44.21.39.13.75.29,1.14.39a.08.08,0,0,1,.08.08.06.06,0,0,1-.05.05.33.33,0,0,1-.16,0c-.31-.15-.7-.13-1-.28a1.18,1.18,0,0,0-.6-.08.2.2,0,0,0-.1.05c0,.05,0,.08.08.1a5.32,5.32,0,0,0,1.27.41,2.79,2.79,0,0,1,1.43.6.35.35,0,0,0,.39.05c.23-.08.49.08.7.18a2.21,2.21,0,0,0,1.45.23v-.05c-.05-.08-.28-.05-.21-.21s.23-.08.31,0c.34.21.73.1,1.06.31.08.05.18.08.26.13a2.16,2.16,0,0,0,.67.26,14.67,14.67,0,0,1,2.54.52c.18.08.42,0,.62,0a14.07,14.07,0,0,0,2.77.21,3.41,3.41,0,0,0,1.24-.16,7.43,7.43,0,0,1,1.06-.26,4,4,0,0,0,1.06-.39,2.81,2.81,0,0,1,1.09-.28c.52-.08,1-.21,1.5-.26A8.28,8.28,0,0,0,187,57a1.46,1.46,0,0,1,.93-.1,1.59,1.59,0,0,0,1.27-.23c.29-.13.49-.26.42-.62,0-.08.08-.15.15-.21.47-.31.93-.57,1.43-.86s.88-.57,1.35-.8a.28.28,0,0,1,.21,0,1.16,1.16,0,0,0,.65-.23c.28-.16.52-.39.8-.52a2.64,2.64,0,0,0,.67-.62c.54-.55,1.22-.91,1.71-1.5a.17.17,0,0,1,.23-.05c.36.28.55-.08.62-.26a4.37,4.37,0,0,1,.75-.93,27.76,27.76,0,0,0,2.07-2.88,5.59,5.59,0,0,0,.62-1.45c.29-.93.54-1.87.8-2.8a8.15,8.15,0,0,1,.73-1.68.31.31,0,0,1,.13-.13.77.77,0,0,0,.31-1.19.69.69,0,0,1,0-.6,4.43,4.43,0,0,1,.31-1,.44.44,0,0,0,0-.18,5.44,5.44,0,0,1,.13-1.71,27.84,27.84,0,0,0,.08-3.29c0-.75-.08-.67.7-.67h.62a.28.28,0,0,1,.31.31,6,6,0,0,1-.08.68,3.69,3.69,0,0,0,.1,1.92c.08.16,0,.34.05.49s-.05.31.1.31.08-.21.08-.31v-1c0-.13,0-.26.1-.34s.21.05.29.13a1.16,1.16,0,0,0,.83-.05.59.59,0,0,0-.05-.7,1.5,1.5,0,0,0-.7-.57.54.54,0,0,1-.26-.67c.05-.16.18-.16.31-.1a1,1,0,0,0,.39.08c.39,0,.39,0,.42.44s-.08.62.18.88c0,.05,0,.13.13.1s.08-.1.08-.16c0-.36,0-.75,0-1.12s.1-.36.34-.34h.16c.41,0,.41,0,.41.41v.47c0,.08,0,.18.08.18s.1-.1.1-.15v-.75c0-.13,0-.26.16-.31s.26-.05.36.05.05.26,0,.39,0,0,0,.05-.36.23-.28.47a1,1,0,0,0,.39.44.53.53,0,0,1,.16.39,16.21,16.21,0,0,1-.05,2.51,13.62,13.62,0,0,1-.18,1.53,10,10,0,0,1-.18,1c-.18.42-.05.91-.31,1.3a.09.09,0,0,0,0,.08,3.11,3.11,0,0,1-.23,1.3,8.45,8.45,0,0,1-.47,1.56,8.56,8.56,0,0,0-.23.88,16.34,16.34,0,0,0-.52,1.61c-.18.62-.44,1.22-.62,1.84-.1.36-.26.7-.39,1-.26.67-.57,1.32-.86,2a.51.51,0,0,0,0,.21.12.12,0,0,0,.08.08c.05,0,.08,0,.08-.08.36-.6.73-1.17,1.06-1.79s.62-1.14.85-1.73c.1-.31.34-.57.42-.88a7.83,7.83,0,0,0,.49-1.3,1.83,1.83,0,0,1,.18-.39c.21-.57.39-1.17.6-1.74.13-.41.21-.86.36-1.27s.16-1.14.39-1.63,0-.91.31-1.27c0,0,0,0,0,0-.1-.78.31-1.48.21-2.26-.05-.34.23-.62.21-1,0-.1.1-.13.21-.13s.13.1.13.18c0,.28.23.49.23.78,0,.1.15.21.28.21s.05-.15.05-.26V33.14c0-.44,0-.44.44-.47a7,7,0,0,0,1.45-.08c.16-.05.13.13.16.21v1c0,.34,0,.67,0,1a7.47,7.47,0,0,1-.23,2.15,7.13,7.13,0,0,1-.49,1.89c-.08.15-.13.44,0,.52s.13-.21.23-.34a1.25,1.25,0,0,0,.21-.6c.13-.62.31-1.22.47-1.84a11.48,11.48,0,0,1,.34-2.08c.13-.28.34-.16.52-.18s.21.13.23.26c0,.49.23.78.75.8.29,0,.21.18.18.29A12.42,12.42,0,0,0,215,37a11.85,11.85,0,0,1-.26,1.32c-.1.42-.15.88-.28,1.3-.21.83-.39,1.66-.67,2.46a6.22,6.22,0,0,0-.29,1,3.26,3.26,0,0,1-.42,1.12,3.62,3.62,0,0,0-.31.88c0,.18-.16.28-.21.44-.21.54-.41,1.09-.67,1.63a2.64,2.64,0,0,1-.23.57.1.1,0,0,0,.05.16c.08.05.1,0,.13-.08a30.33,30.33,0,0,0,1.71-3.08,27.38,27.38,0,0,0,1.19-3c.23-.73.47-1.43.65-2.15.1-.42.18-.83.26-1.25s.13-1,.26-1.48a3.34,3.34,0,0,0,.1-1c0-.41.08-.49.47-.57.18-.05.31-.08.16-.31s-.16-.31-.29-.42a.4.4,0,0,1-.13-.34V33c0-.23.08-.34.31-.31h.67c.21,0,.31.08.31.28,0,1.17.08,2.36,0,3.5a11.87,11.87,0,0,1-.29,1.89,11.22,11.22,0,0,0-.26,1.4c0,.39-.21.78-.28,1.17s-.34,1-.44,1.53a.3.3,0,0,0,.05.29,2.22,2.22,0,0,0,.47-.83,14.46,14.46,0,0,0,.57-1.76c.08-.36.18-.73.26-1.09a4.37,4.37,0,0,1,.28-1.27.33.33,0,0,0,0-.16,20.93,20.93,0,0,0,.21-3.14V34c0-.16-.08-.39.13-.44a.65.65,0,0,1,.65.08.39.39,0,0,0,.29.1c.13,0,.26-.05.23-.23s-.15-.23-.31-.26a1.63,1.63,0,0,1-.78-.6c-.05-.16,0-.23.18-.26s.36,0,.52,0a.59.59,0,0,0,.41-.1.18.18,0,0,1,.26,0c.1.08,0,.13-.05.21a1.71,1.71,0,0,0,0,.73c0,.1.1.13.18.13s.16-.1.16-.21v-.62c0-.21.08-.29.28-.29a.81.81,0,0,0,.49-.1c.15-.1.21.1.28.18a.44.44,0,0,1,0,.18c0,1.24.05,2.51,0,3.76,0,.41-.16.86-.16,1.3,0,.13,0,.31.18.31s.21-.18.18-.31c-.1-.52.26-1,.21-1.5a3.65,3.65,0,0,1,0-1.5,8.89,8.89,0,0,0,.16-2.18c0-.23.1-.31.31-.31a1.69,1.69,0,0,1,.52,0c.13.05.05.31.18.31s0-.26.18-.31c.41-.15.78-.49,1.3-.41.21,0,.31.08.31.31a3.13,3.13,0,0,1,0,.49,1.46,1.46,0,0,0,.31,1.09.75.75,0,0,1,0,.57.09.09,0,0,1-.15.08c-.18-.13-.21,0-.21.13a6,6,0,0,0,.05,1.82,10.51,10.51,0,0,0,.28,1.5,1.6,1.6,0,0,1,0,1.09,1.49,1.49,0,0,0-.1-.36c0-.05,0-.1-.1-.1s-.08.05-.08.1v.05c0,.1.08.34-.13.31s-.21-.23-.18-.39c0-.8-.08-1.61-.08-2.41,0-.13.1-.39-.23-.23-.13.05-.13-.1-.13-.18v-1c0-.08,0-.18-.08-.21s-.16.08-.21.13-.08.21-.08.31c0,1.3-.05,2.57,0,3.86,0,.52.18,1,.18,1.58,0,.05,0,.1.13.13a16.52,16.52,0,0,1,.13-1.89.67.67,0,0,1,.1.52,2.61,2.61,0,0,0,.28,1.27c.1.31.18.57,0,.83a.67.67,0,0,0-.05.39v1.17a.16.16,0,0,0-.1,0c-.1-.34-.21-.65-.31-1a.12.12,0,0,0-.13.13,2.85,2.85,0,0,1-.23,1.11,2.1,2.1,0,0,1-.26.55.43.43,0,0,0,0,.57.27.27,0,0,1,0,.36,4.2,4.2,0,0,0-.26.8,1,1,0,0,1-.26.47,2.94,2.94,0,0,1-.75.52,1,1,0,0,0-.49.93.41.41,0,0,1-.1.34.23.23,0,0,0,0,.36c.05.05.1.16.08.18-.23.28-.08.67-.31.93a3.16,3.16,0,0,0-.41,1.06,6.1,6.1,0,0,1-.44,1.14c-.34.6-.6,1.24-.88,1.86a3.32,3.32,0,0,0-.16,1.43c0,.13,0,.34.23.15s.21-.05.16.13a.09.09,0,0,0,.05.13c.05,0,.1,0,.13-.05s.16-.13.16-.26a4,4,0,0,1,.44-1.09,2,2,0,0,0,.13-.42,1,1,0,0,1,.36-.75,7.18,7.18,0,0,1-.49,1.92c-.16.34-.28.7-.44,1.06s-.23.39-.49.36a.46.46,0,0,0-.41.29,6.78,6.78,0,0,0-.6,1.58c0,.21-.18.23-.34.1s-.21-.08-.23.08a.48.48,0,0,1-.23.31,7.41,7.41,0,0,0-1.5,2.38,1.29,1.29,0,0,0-.21.47c-.23-.31-.36-.1-.49.08a11.46,11.46,0,0,1-1.66,2c-.05.05-.1.21-.21.08s0-.18,0-.26a5.26,5.26,0,0,0,.49-1c.05-.13,0-.23-.15-.28s-.44-.1-.57.1a8.71,8.71,0,0,1-1.37,1.74c-.23.23-.36.57-.62.8a.37.37,0,0,0-.05.1c.23.23,0,.31-.13.44-.29.31-.62.62-.91.93a.66.66,0,0,1-.49.21c-.42,0-.54.16-.57.57,0,.18,0,.36-.26.39-.05,0-.1.08-.16.1a13.55,13.55,0,0,1-2.1,1.5,3.49,3.49,0,0,1-1,.47.36.36,0,0,0-.26.21,2.05,2.05,0,0,1-.73.91c-.18.15-.39.26-.41.54a.33.33,0,0,0-.16,0,15.15,15.15,0,0,1-1.66.93c-.1.05-.21.13-.18.26a.36.36,0,0,0,.28.26.87.87,0,0,0,.52,0c.1-.05.21-.1.31,0a4.38,4.38,0,0,1-1.19.86,5.34,5.34,0,0,0-1.43,1.09c-.15.18-.39.23-.54.39s-.18.08-.23,0,.05-.13.1-.18.26-.23.39-.34.18-.08.1-.18-.13,0-.21,0c-.26.13-.52.23-.78.39s-.78.47-1.17.67c0,0-.08,0-.1.05a1.29,1.29,0,0,1-.8.41,1.72,1.72,0,0,0-.49.23c-.08.05-.18.1-.26,0s0-.18.05-.29a2.29,2.29,0,0,1,.65-.39c.21-.13.52-.13.67-.26s.6-.39.88-.6a1.61,1.61,0,0,1,1-.42c.18,0,.39-.18.57-.28.34-.21.65-.42,1-.65.08,0,.26-.08.18-.23s-.21,0-.31,0c-.65.31-1.27.65-1.92,1s-1.32.67-2,1a4.37,4.37,0,0,0-1,.49,1.86,1.86,0,0,0-.42.49c-.26.41-.6.78-.85,1.19-.13.18-.47.23-.73.34s-.31.23-.54.08l.6-.36c-.26-.21-.6,0-.86-.18a2.37,2.37,0,0,0,.78-.52c.13-.13.18-.28.08-.41a.32.32,0,0,0-.44-.05,4.11,4.11,0,0,1-1.06.54c-.13.05-.36.13-.18.39,0,.05,0,.1-.05.13l-1.09.39c-.31.1-.62.23-.91.31s-.65.21-1,.28a6,6,0,0,0-1.35.31.1.1,0,0,1-.08,0,7.16,7.16,0,0,1-1.81.21.5.5,0,0,0-.49.13.2.2,0,0,1-.23,0c-.26-.23-.6-.13-.88-.15a3.88,3.88,0,0,0-.78,0A8.94,8.94,0,0,1,182,78a.32.32,0,0,0-.21.1.24.24,0,0,1-.26,0c-.6-.31-1.22-.08-1.82-.13a.14.14,0,0,0-.13.08c0,.08.08.08.13.1s.31,0,.29.08-.21.08-.34.1-.44.13-.62.13c-.52,0-1,.28-1.53.26-.13,0-.28,0-.1-.21,0,0,0,0,0-.05,0-.29,0-.29.34-.29h.6c.08,0,.16,0,.18-.08s-.08-.08-.13-.1a.92.92,0,0,0-.65-.18h-1.09a1.24,1.24,0,0,1-.6-.13.63.63,0,0,0-.67,0,.43.43,0,0,1-.52,0c-.31-.21-.68-.08-1-.1-.05,0-.1,0-.1.08s.08.08.13.1.13,0,.13.1-.1.08-.16.08-.13,0-.18,0a1.74,1.74,0,0,0-1-.18c-.08,0-.21,0-.21-.08s.13-.08.21-.08.39.05.52-.13.1-.08.1-.16-.1-.08-.18-.08a9.14,9.14,0,0,0-1.19,0c-.31,0-.65-.36-1.06-.28Zm22.34-3.21a2,2,0,0,0-1.06.41.67.67,0,0,1-.44.18,4.28,4.28,0,0,0-1.14.26c-.52.15-1.06.15-1.61.28l-1.09.26a4,4,0,0,1-1.25.34.18.18,0,0,0-.21.18c0,.13.08.18.21.18a1,1,0,0,1,.65.16c.1.08.28,0,.44-.05a2.7,2.7,0,0,1,1.45-.49.35.35,0,0,0,.23-.05,5.92,5.92,0,0,1,1.35-.29,2.88,2.88,0,0,1,1.25-.23.19.19,0,0,0,.1-.05,3.48,3.48,0,0,1,.91-.28,11.52,11.52,0,0,0,1.32-.49,2.43,2.43,0,0,1,.78-.21c.34-.05.7,0,1-.23a1.41,1.41,0,0,1,.57-.39,5.32,5.32,0,0,0,1.37-.6,15.51,15.51,0,0,0,2.25-1.4,6.87,6.87,0,0,1,1.37-.88,4,4,0,0,1,1-.41,1.74,1.74,0,0,0,.86-.6c.05-.05.16-.1.13-.18s-.16-.05-.23-.08c-.29-.05-.49.13-.73.18a2.51,2.51,0,0,0-1.06.49,8.38,8.38,0,0,0-.8.47c-.26.21-.62.29-.75.65-.05.13-.18.29-.34.23a1,1,0,0,0-.73.16c-.93.39-1.76.93-2.72,1.27-.62.21-1.19.55-1.82.73a1.83,1.83,0,0,0-.62.34A.9.9,0,0,1,193.25,73.78Zm-20.19,1.53h-.29a.16.16,0,0,0-.18.18c0,.13.08.15.21.18.55.13,1.09.23,1.63.34a13.45,13.45,0,0,0,1.79.18c1.14.1,2.31,0,3.47,0a1,1,0,0,1,.47.1,2,2,0,0,0,.91.29c.39,0,.75-.36,1.14,0,0,0,.08,0,.08,0,.21-.21.49-.13.73-.16a3.06,3.06,0,0,0,1.17-.15,10,10,0,0,0,1.45-.57c.08-.05.23,0,.18-.13s-.16,0-.26-.08c-.31-.05-.6.18-.91.18a13.63,13.63,0,0,0-1.43.1c-1.19.13-2.41.13-3.6.29-.39.05-.73-.21-1.09-.18-1.19.08-2.36-.18-3.55-.21a.76.76,0,0,1-.23-.05C174.22,75.41,173.6,75.54,173.06,75.31Zm23.07-12.57c.23,0,.39-.13.57-.23,1-.52,1.94-1,2.88-1.56.6-.39,1.24-.73,1.84-1.14.78-.55,1.51-1.12,2.26-1.69.1-.08.28-.16.13-.34s-.23-.13-.41-.05a15,15,0,0,0-1.27.93c-.55.36-1.06.78-1.61,1.14s-.93.57-1.38.88-.78.47-1.17.7c-.62.39-1.27.78-1.89,1.14-.05,0-.21,0-.15.13S196,62.74,196.13,62.74Zm14.88-13a.42.42,0,0,0-.28-.49c-.16-.05-.21.1-.29.26-.21.44-.44.88-.67,1.3s-.49.78-.75,1.17c-.55.83-1.22,1.53-1.82,2.28a15.14,15.14,0,0,1-1.09,1.14c-.1.1-.21.23-.08.36s.23,0,.34-.1a14.39,14.39,0,0,0,1.35-1.48c.31-.52.83-.88,1.19-1.37a5.28,5.28,0,0,1,.88-1.14.2.2,0,0,0,.05-.1,3.31,3.31,0,0,1,.52-.8,4.78,4.78,0,0,1,.54-.83A.24.24,0,0,0,211,49.73ZM165,73.16c0-.08-.1-.08-.15-.1-.52-.21-1.06-.39-1.56-.62-.86-.39-1.69-.83-2.51-1.24a10.42,10.42,0,0,1-1.3-.73,7.33,7.33,0,0,1-1.19-.75c-.05-.05-.29-.05-.21.08s.16.52.44.62a7.15,7.15,0,0,1,1.43.62c.47.31,1.11.36,1.45.88,0,0,.08,0,.1.05.47.21.93.42,1.37.65a7.94,7.94,0,0,0,1.89.62A.32.32,0,0,0,165,73.16Zm51.45-18c0,.08,0,.18.1.21s.1-.08.13-.13a2.83,2.83,0,0,0,.29-.78c.18-.44.49-.8.7-1.22s.34-.57.47-.88.36-.78.57-1.14a.16.16,0,0,0,0-.23c-.08-.05-.13,0-.18.08s-.1.08-.13.13a5.52,5.52,0,0,1-.8,1.06,3.3,3.3,0,0,0-.7,1.3,9.26,9.26,0,0,1-.39,1.45A.39.39,0,0,1,216.42,55.17ZM207.66,36.3c.05-.31-.1-.42-.39-.42a1.86,1.86,0,0,1-.83-.1c-.16-.08-.26,0-.29.18a.77.77,0,0,0,1,.8C207.4,36.69,207.71,36.66,207.66,36.3Zm12.42,5.93a.45.45,0,0,0,.34-.47,2.94,2.94,0,0,1,.26-.93c.1-.39.21-.8.28-1.19,0-.1.05-.26-.08-.29s-.21.13-.26.23a.43.43,0,0,0,0,.18c0,.44-.29.8-.21,1.27a.2.2,0,0,1-.05.1C220.1,41.46,220.33,41.9,220.07,42.24ZM212.53,45a1.66,1.66,0,0,0-.05-.23c-.13-.23-.47-.34-.47-.16s-.44.54-.1.88c.05.05,0,.13-.05.21a.31.31,0,0,0-.08.26c0,.08,0,.16.08.18s.1-.05.16-.08C212.27,45.76,212.32,45.35,212.53,45ZM214,40a3.54,3.54,0,0,1,.57-1.53s0-.1,0-.16-.1-.18-.21-.21-.1.1-.1.18a1,1,0,0,1-.26.44C213.62,39.23,213.39,39.54,214,40Zm8.24-.54c-.1,0-.26,0-.26.18s-.1.44.13.54.29.21.1.39a.28.28,0,0,0,0,.31c.05.1.13.08.23.05s.1-.18.13-.29-.05-.41.08-.6A.45.45,0,0,0,222.2,39.44ZM219.84,39v-.34c0-.21-.05-.31-.29-.31s-.28.1-.28.31c0,.39.26.75.15,1.14a.2.2,0,0,0,.05.1c.08.08.16.05.16,0C219.63,39.57,220,39.31,219.84,39ZM209,64.35s-.05-.08-.08-.08a.13.13,0,0,0-.16.08c-.34.39-.78.65-1.14,1-.1.1-.21.21-.08.34s.26.05.36-.05c.26-.28.52-.54.8-.8C208.8,64.68,208.75,64.45,209,64.35Zm2.62-17.94v-.16c0-.08,0-.18-.1-.21s-.08.1-.1.16a7.32,7.32,0,0,1-.65,1.14.43.43,0,0,0-.1.34c0,.05,0,.13.08.16s.1,0,.13-.08l.55-.86A.52.52,0,0,0,211.57,46.41Zm.08-9.17a.4.4,0,0,0,.47-.36c0-.16-.31-.39-.52-.39a.4.4,0,0,0-.39.39C211.21,37.21,211.42,37.23,211.65,37.23Zm7.65,3.14v-.23c0-.08,0-.21-.08-.21s-.08.13-.1.18c-.21.34-.13.78-.34,1.12a.71.71,0,0,0,0,.52.12.12,0,0,0,.08.08.08.08,0,0,0,.08-.08A3.7,3.7,0,0,0,219.3,40.37ZM196.13,52.6c.05,0,.13,0,.16,0,.31-.23.42-.6.65-.88a.11.11,0,0,0-.05-.16c-.08,0-.1,0-.15.08l-.75.75c0,.05-.13.08-.1.18S196,52.6,196.13,52.6Zm25.76-11v-.23c0-.05,0-.13-.08-.15s-.1.08-.1.13a2.89,2.89,0,0,1-.36,1.22.26.26,0,0,0,.13.31c.05,0,.08.1.15.08s.05-.18.08-.28-.05-.36.05-.52A.62.62,0,0,0,221.89,41.59Zm1-7.91v-.31c0-.08,0-.21-.08-.23s-.16.08-.21.16a2.12,2.12,0,0,0-.05,1c.05.08.1.05.18,0S222.82,33.86,222.85,33.68Z" style="fill:#fff"/><path d="M202.17,32.6c0,.26.08.52.08.78a1.3,1.3,0,0,0,.16.62,2,2,0,0,1,.08,1.35,9.41,9.41,0,0,0-.1,1.48c0,.34-.1.7.21,1,0,0,0,.1,0,.16a16.58,16.58,0,0,0-.05,1.66c-.18-.13-.13-.26-.13-.36v-.93c0-.08,0-.16-.1-.18s-.13.08-.13.18a1.87,1.87,0,0,0,0,.36.84.84,0,0,1-.23.75c-.18.18-.13.52-.31.73s0,.26.16.13.16,0,.18.1a1.14,1.14,0,0,1-.05.52.51.51,0,0,0-.08.34c0,.49-.26.91-.26,1.37,0,.1-.08.16-.13.23a1.32,1.32,0,0,0-.41,1c0,.13,0,.34-.21.16-.08-.05-.1,0-.16.08-.41.86-.85,1.69-1.27,2.54-.29.57-.67,1.09-1,1.63a5.7,5.7,0,0,1-.52.78c-.26.26-.44.54-.7.8a4.08,4.08,0,0,1-.73.57c-.23.13-.29.47-.57.57,0,0-.08.08-.1.08-.52-.18-.67.31-.86.57a7.3,7.3,0,0,1-1.48,1.61c-.16.1-.18,0-.29-.05s-.08-.16,0-.26.34-.16.47-.31.18-.08.1-.18a.19.19,0,0,0-.26,0,1.07,1.07,0,0,1-.29.18.25.25,0,0,1-.31-.1c-.1-.13.08-.16.13-.18a18.51,18.51,0,0,0,1.61-1.24,22.55,22.55,0,0,0,2.2-2.25c.47-.57,1-1.14,1.38-1.74a21.33,21.33,0,0,0,1.5-2.54,23.52,23.52,0,0,0,1-2.33c.16-.47.18-.93.34-1.4a2.86,2.86,0,0,1,.23-.49,1.75,1.75,0,0,0,.15-.6,5.89,5.89,0,0,1,.34-1.45,3.1,3.1,0,0,0,.08-1.3,7.57,7.57,0,0,1,.1-1.71,6.64,6.64,0,0,0,.1-1c0-.55,0-1.12,0-1.66T202.17,32.6Z" style="fill:#fff"/><path d="M204.29,70.41a10.08,10.08,0,0,0,1.32-1c.16-.15.29-.34.54-.28.08,0,.16-.05.21-.1a3.41,3.41,0,0,1,.67-.54c.05,0,.1-.1.16,0s0,.1-.05.15l-.34.34a1.66,1.66,0,0,0-.55.7c-.08.29-.47.29-.7.42a2.5,2.5,0,0,1-.44.23.17.17,0,0,0-.1.26c.05.13.16.05.23,0a1.51,1.51,0,0,0,.34-.21.79.79,0,0,1,.67-.23c.29.05.44-.26.52-.41.13-.39.47-.47.75-.65s.7-.34.88-.73c0-.08.13-.08.21-.1a.52.52,0,0,0,.49-.42.57.57,0,0,1,.31-.34,1.07,1.07,0,0,0,.65-.65.51.51,0,0,1,.26-.26,2.74,2.74,0,0,0,1.45-1.71.79.79,0,0,1,.26-.39c.05-.05.1-.21.21-.13s.08.21,0,.29a1.81,1.81,0,0,1-.16.31.2.2,0,0,0,0,.21c.08.05.13,0,.18-.08.21-.26.39-.52.62-.78a2.24,2.24,0,0,0,.57-.73.31.31,0,0,1,.18-.18c.54-.16.8-.67,1.14-1a4,4,0,0,0,.47-.88c.08-.13.18-.26.31-.47a1.16,1.16,0,0,1-.18.78,8.3,8.3,0,0,1-2.18,2.75c-.13.13-.34.1-.44.26a15.12,15.12,0,0,1-2.59,2.72c-.54.52-1.11,1-1.69,1.53a7.17,7.17,0,0,1-2.28,1.32c-.78.29-1.43.8-2.18,1.09-.08,0-.18.13-.26.05s.05-.16.1-.21a1,1,0,0,0,.36-.83S204.29,70.41,204.29,70.41Z" style="fill:#fff"/><path d="M186.28,56.44c.23-.1.44-.18.62-.29a.53.53,0,0,0,.21-.21c.08-.18-.1-.13-.18-.16s-.08-.05-.05-.08.05-.05.1-.08a6.34,6.34,0,0,0,1.79-.73,1.15,1.15,0,0,1,.73-.05c.34.05.6-.18.88-.26.1,0,.31-.15.13-.36-.05-.05,0-.1.08-.13a4.85,4.85,0,0,0,1.22-.7.16.16,0,0,1,.21,0c.08.08,0,.13-.05.18a1.91,1.91,0,0,1-.34.31c-.1.08-.26.08-.1.26s0,.13-.08.16a7.86,7.86,0,0,1-1.63.93c-.44.15-.83.44-1.27.62a11.76,11.76,0,0,1-1.35.47,2.29,2.29,0,0,0-.39.13A.39.39,0,0,1,186.28,56.44Z" style="fill:#fff"/><path d="M136.93,41.28v-.52a.2.2,0,0,1,.05-.1c.05,0,.08,0,.08.05,0,.21.26.36.21.6a.2.2,0,0,0,.08.18c.08.05.1.23.23.13s0-.21,0-.29,0-.21.08-.28.21,0,.23.08a1.5,1.5,0,0,1,.31.73v.49a4.51,4.51,0,0,0,.52,2.1,1,1,0,0,1-.18.75c-.05,0-.1,0-.1,0s-.15-.23-.18-.36c0-.36-.31-.67-.23-1.06a.63.63,0,0,0-.26-.67c-.13-.08-.05-.36-.23-.31s-.05.28-.08.41,0,.16-.08.18-.1-.08-.18-.1a.26.26,0,0,1-.1-.18C137.24,42.47,136.85,41.93,136.93,41.28Z" style="fill:#fff"/><path d="M220.78,52.24c0-.26-.1-.57.13-.8,0,0,0,0,0,0-.34-.44.05-.73.21-1.09.08-.18.08-.36.16-.54.21-.49.65-.88.65-1.45a.08.08,0,0,1,.08-.08c.05,0,.08.05.1.1a.44.44,0,0,0,0,.18.12.12,0,0,0,.08.08c.08,0,.1-.05.08-.1,0-.47.31-.88.21-1.35-.05-.26.18-.41.21-.62a0,0,0,0,1,.08,0s.08.05.08.1.08.36,0,.49a1.1,1.1,0,0,0-.16.75.37.37,0,0,1-.08.29.27.27,0,0,0,0,.41.21.21,0,0,1,.05.26c-.18.31-.21.7-.41,1a1.76,1.76,0,0,0-.31.75.89.89,0,0,1-.29.47,2,2,0,0,0-.65,1.14.63.63,0,0,1-.21.08Z" style="fill:#fff"/><path d="M180.73,57.43c-.39.18-.41-.23-.62-.39-.05-.05,0-.1.05-.1a.33.33,0,0,1,.16,0,15.3,15.3,0,0,0,1.53-.15c.65,0,1.27-.23,1.92-.21.18,0,.31-.16.49-.16s.18,0,.23,0-.05.13-.08.18c-.13.39-.47.41-.8.52a9.12,9.12,0,0,1-2.23.18C181.2,57.3,181,57.53,180.73,57.43Z" style="fill:#fff"/><path d="M215.31,33.11v.62c0,.13,0,.23-.21.26s-.31,0-.31-.21c0-.34-.23-.36-.49-.36-.6,0-.86-.42-.65-1,0-.05.05-.13.13-.13.39,0,.73-.26,1.14-.21s.39.13.39.39Z" style="fill:#fff"/><path d="M181.61,78.86h-2c-.1,0-.26.05-.29-.1a.22.22,0,0,1,.26-.23,2.91,2.91,0,0,1,1.32.13c.29.16.67,0,1,.05a3.83,3.83,0,0,0,1.43-.34s0,0,.05,0a8.48,8.48,0,0,1,1.63-.21c.26,0,.44.26.73.21a.06.06,0,0,1,.05.05c0,.05,0,.08-.05.08a1.19,1.19,0,0,1-1.27.05c-.13-.1-.34-.05-.52,0s-.13.05-.08.13c.18.31-.08.21-.21.23h-2Z" style="fill:#fff"/><path d="M138.59,47.39c.08.26.18.57.31.88s.18.44.26.67c0,.05,0,.15-.05.18S139,49.05,139,49c-.23-.44-.44-.88-.67-1.32a2.57,2.57,0,0,1-.18-.6c-.08-.26-.18-.54-.26-.8a3.41,3.41,0,0,0-.28-.8c-.05-.1-.1-.18,0-.29s.13.05.21.05.34-.1.42.08.28.36.26.62.16.49.21.73a.11.11,0,0,0,.08.08c.08,0,.08-.08.1-.13s0-.13.1-.13.08.08.08.13.23.26.05.47-.13.44-.26,0c0-.08-.1-.05-.13,0S138.61,47.24,138.59,47.39Z" style="fill:#fff"/><path d="M137,34.62c.13.05.1.18.1.26a4.55,4.55,0,0,1,0,.6,1.73,1.73,0,0,0,.31,1.24.43.43,0,0,1,0,.47.85.85,0,0,0,.05,1,.75.75,0,0,1,.21.6c0,.08,0,.18,0,.21.31.26,0,.49-.05.73,0,.05-.05.08-.08.05a.38.38,0,0,1-.08-.1.34.34,0,0,0-.23-.26c-.05,0-.1-.08-.1-.1.05-.44-.44-.8-.1-1.32a1.13,1.13,0,0,0,0-1,1.07,1.07,0,0,1-.13-.49V34.93C136.93,34.82,136.9,34.72,137,34.62Z" style="fill:#fff"/><path d="M170.88,77a.92.92,0,0,0,.65.36,1.45,1.45,0,0,0,.34,0c.08,0,.21,0,.23.08s-.1.08-.18.13-.08.05-.08.08.08.05.13.08.31-.05.31.1-.23.08-.36.08a1.1,1.1,0,0,1-.8-.15c-.05-.05-.15,0-.23,0a2.59,2.59,0,0,1-1.4-.34c-.13-.08-.31,0-.42-.1a3.18,3.18,0,0,1,1.82-.28S170.88,77,170.88,77Z" style="fill:#fff"/><path d="M191.36,77.56a3.75,3.75,0,0,0-1.61.34.24.24,0,0,1-.23,0,.2.2,0,0,1-.05-.21c0-.1.1-.13.21-.13a6,6,0,0,0,1.76-.42,1.12,1.12,0,0,0,.65-.39.23.23,0,0,1,.36-.05c.23.13.47.34.78.29.05,0,.1,0,.13.08s-.08.08-.13.1a11,11,0,0,0-1.24.34A2.64,2.64,0,0,1,191.36,77.56Z" style="fill:#fff"/><path d="M149.86,65.36a.54.54,0,0,1-.47-.18c-.05-.05-.1-.18-.21-.13s-.05.16-.08.26v.13a.21.21,0,0,1-.31-.15,2.64,2.64,0,0,0-.83-1,3,3,0,0,1-.47-.52.14.14,0,0,1,0-.21c.08-.05.1,0,.16.05.23.21.44.44.67.65.36.36.36.36.8.16,0,.18.18.23.26.36S149.78,65.1,149.86,65.36Z" style="fill:#fff"/><path d="M202.11,73.21a1.13,1.13,0,0,1,1.22-.65A3.89,3.89,0,0,1,202.11,73.21Z" style="fill:#fff"/></svg>