<svg id="c3514f90-d195-4ad9-91f7-4720858bf881" data-name="Layer 1" xmlns="http://www.w3.org/2000/svg" viewBox="0 0 50 50">
  <title>instagram</title>
  <path d="M25.1,37.33a12.32,12.32,0,0,1,0-24.63h0a12.32,12.32,0,0,1,0,24.63Zm0-21.26h0a8.95,8.95,0,0,0,0,17.89h0a8.95,8.95,0,0,0,0-17.89Z" />
  <circle cx="38.86" cy="12.18" r="2.56" />
  <path d="M12.79,49.75A12.36,12.36,0,0,1,.44,37.43L.37,12.73A12.37,12.37,0,0,1,12.69.35L37.39.29h0A12.36,12.36,0,0,1,49.77,12.61l.06,24.7A12.36,12.36,0,0,1,37.52,49.69l-24.7.06Zm-.09-46a9,9,0,0,0-9,9l.06,24.7a9,9,0,0,0,9,9h0l24.7-.06a9,9,0,0,0,9-9l-.06-24.7a9,9,0,0,0-9-9h0Z" />
</svg>
