<svg id="0c122b0d-fd48-422d-b247-1bd18f68ecce" data-name="Layer 1" xmlns="http://www.w3.org/2000/svg" viewBox="0 0 50 50">
  <title>phone-icon</title>
  <path d="M14.45,31.54,6.28,41.9a.55.55,0,0,0,.09.77h0l6.23,5A6.1,6.1,0,0,0,17.06,49c1.55-.16,12.06-12.8,15.38-18.56a123,123,0,0,0,8.52-18,6.12,6.12,0,0,0-3.5-7.86L30,1.69a.55.55,0,0,0-.71.31h0L24.42,14.29a.55.55,0,0,0,.31.71h0l4.17,1.62c-1.4,3-3,6.07-4.69,9l0,0c-1.7,2.94-3.53,5.81-5.46,8.54l-3.49-2.8a.55.55,0,0,0-.77.08l0,0Zm15.68-15h0Z"/>
</svg>
