<svg id="7e8e6f40-b817-46a0-adeb-22d819e2b7b6" data-name="Layer 1" xmlns="http://www.w3.org/2000/svg" viewBox="0 0 50 50">
  <title>twitter</title>
  <path d="M3.78,8.15C1.43,13.36,2,17.83,6.18,21.8L1.87,20.6C2.21,25.76,5,28.92,9.65,30.71l-3.9,0A10.43,10.43,0,0,0,15,37.82,20.43,20.43,0,0,1,.5,41.89a1.9,1.9,0,0,0,.55.47,28.05,28.05,0,0,0,11.83,3.95,27.54,27.54,0,0,0,17.6-3.71c9.12-5.66,13.68-14.08,14.06-24.77a2.12,2.12,0,0,1,1-1.84,16.69,16.69,0,0,0,4-4.34c-1,.34-1.81.63-2.63.85s-1.64.35-2.45.52a11.59,11.59,0,0,0,3.72-5.14c-1.88.64-3.7,1.31-5.55,1.86a1.54,1.54,0,0,1-1.24-.33A9.72,9.72,0,0,0,31.18,7.27,9.43,9.43,0,0,0,24.53,15a26.13,26.13,0,0,0-.07,4A29.12,29.12,0,0,1,3.78,8.15" />
</svg>
